<svg xmlns="http://www.w3.org/2000/svg" xmlns:xlink="http://www.w3.org/1999/xlink" viewBox="0 0 485.91 489.31"><defs><style>.cls-1,.cls-35,.cls-44,.cls-79{fill:none;}.cls-2{clip-path:url(#clip-path);}.cls-12,.cls-3{font-size:12px;}.cls-3{font-family:ArialMT, Arial;}.cls-4{letter-spacing:0em;}.cls-5{letter-spacing:0em;}.cls-6{letter-spacing:0em;}.cls-7{letter-spacing:-0.02em;}.cls-8{letter-spacing:0.01em;}.cls-9{letter-spacing:0em;}.cls-10{letter-spacing:0em;}.cls-11{letter-spacing:-0.02em;}.cls-12{font-family:Arial-BoldMT, Arial;font-weight:700;}.cls-13{letter-spacing:-0.01em;}.cls-14{letter-spacing:-0.01em;}.cls-15{letter-spacing:-0.01em;}.cls-16{letter-spacing:0.01em;}.cls-17{letter-spacing:-0.02em;}.cls-18{letter-spacing:-0.01em;}.cls-19{letter-spacing:-0.01em;}.cls-20{letter-spacing:-0.01em;}.cls-21{letter-spacing:-0.02em;}.cls-22{letter-spacing:-0.01em;}.cls-23{letter-spacing:0.01em;}.cls-24{letter-spacing:0.01em;}.cls-25{letter-spacing:0.01em;}.cls-26{letter-spacing:-0.02em;}.cls-27{letter-spacing:0em;}.cls-28{letter-spacing:0.01em;}.cls-29{letter-spacing:-0.01em;}.cls-30{letter-spacing:0em;}.cls-31{letter-spacing:-0.02em;}.cls-32{font-size:11.04px;}.cls-32,.cls-46,.cls-53,.cls-56{font-family:Calibri, Calibri;}.cls-33{fill:#fff;}.cls-34{fill:#4f81bd;}.cls-34,.cls-36,.cls-37,.cls-38,.cls-39,.cls-40,.cls-41,.cls-42,.cls-43{fill-rule:evenodd;}.cls-35{stroke:#fff;stroke-width:1.44px;}.cls-35,.cls-44,.cls-79{stroke-linejoin:round;}.cls-36{fill:#c0504d;}.cls-37{fill:#9bbb59;}.cls-38{fill:#8064a2;}.cls-39{fill:#4bacc6;}.cls-40{fill:#f79646;}.cls-41{fill:#2c4d75;}.cls-42{fill:#772c2a;}.cls-43{fill:#5f7530;}.cls-44{stroke:#a6a6a6;}.cls-44,.cls-79{stroke-width:0.75px;}.cls-45{clip-path:url(#clip-path-14);}.cls-46,.cls-53{font-size:10.56px;}.cls-46,.cls-53,.cls-56{fill:#404040;}.cls-47{letter-spacing:0em;}.cls-48{letter-spacing:-0.01em;}.cls-49{letter-spacing:0em;}.cls-50{letter-spacing:0em;}.cls-51{letter-spacing:-0.01em;}.cls-52{letter-spacing:-0.01em;}.cls-53{letter-spacing:-0.01em;}.cls-54{letter-spacing:0em;}.cls-55{letter-spacing:0em;}.cls-56{font-size:10.58px;}.cls-57{letter-spacing:-0.01em;}.cls-58{letter-spacing:0.01em;}.cls-59{letter-spacing:0em;}.cls-60{letter-spacing:0em;}.cls-61{letter-spacing:0em;}.cls-62{letter-spacing:-0.04em;}.cls-63{letter-spacing:0em;}.cls-64{letter-spacing:0.01em;}.cls-65{letter-spacing:-0.01em;}.cls-66{letter-spacing:-0.01em;}.cls-67{letter-spacing:-0.01em;}.cls-68{letter-spacing:0em;}.cls-69{letter-spacing:-0.01em;}.cls-70{letter-spacing:-0.01em;}.cls-71{letter-spacing:-0.01em;}.cls-72{letter-spacing:-0.02em;}.cls-73{letter-spacing:0em;}.cls-74{letter-spacing:-0.01em;}.cls-75{letter-spacing:0.01em;}.cls-76{letter-spacing:-0.01em;}.cls-77{letter-spacing:0em;}.cls-78{clip-path:url(#clip-path-33);}.cls-79{stroke:#d9d9d9;}</style><clipPath id="clip-path" transform="translate(-56.32 -170.95)"><rect class="cls-1" width="595.2" height="841.92"/></clipPath><clipPath id="clip-path-14" transform="translate(-56.32 -170.95)"><rect class="cls-1" x="56.64" y="229.2" width="482.64" height="426.24"/></clipPath><clipPath id="clip-path-33" transform="translate(-56.32 -170.95)"><rect class="cls-1" y="229.2" width="595.2" height="439.68"/></clipPath></defs><title>Asset 2</title><g id="Layer_2" data-name="Layer 2"><g id="Layer_1-2" data-name="Layer 1"><g class="cls-2"><text class="cls-3" transform="translate(57.01 10.3)">t<tspan class="cls-4" x="3.33" y="0">a</tspan><tspan class="cls-5" x="10.06" y="0">b</tspan><tspan x="16.75" y="0">les</tspan><tspan class="cls-6" x="32.09" y="0"> </tspan><tspan class="cls-5" x="35.46" y="0">o</tspan><tspan x="42.16" y="0">f</tspan><tspan class="cls-6" x="45.5" y="0"> </tspan><tspan class="cls-7" x="48.87" y="0">e</tspan><tspan class="cls-8" x="55.35" y="0">m</tspan><tspan x="65.4" y="0">iss</tspan><tspan class="cls-9" x="80.07" y="0">i</tspan><tspan class="cls-10" x="82.69" y="0">on</tspan><tspan x="96.08" y="0">s </tspan><tspan class="cls-4" x="105.42" y="0">d</tspan><tspan class="cls-5" x="112.14" y="0">a</tspan><tspan class="cls-11" x="118.84" y="0">t</tspan><tspan class="cls-10" x="121.97" y="0">a</tspan><tspan x="128.66" y="0">. </tspan></text></g><g class="cls-2"><text class="cls-3" transform="translate(192.42 10.3)"> </text></g><g class="cls-2"><text class="cls-12" transform="translate(15.7 35.74)"><tspan class="cls-13">P</tspan><tspan x="7.93" y="0">l</tspan><tspan class="cls-4" x="11.27" y="0">a</tspan><tspan class="cls-8" x="17.99" y="0">t</tspan><tspan class="cls-5" x="22.04" y="0">e</tspan><tspan x="28.74" y="0"> </tspan></text></g><g class="cls-2"><text class="cls-12" transform="translate(47.88 35.74)">1</text></g><g class="cls-2"><text class="cls-12" transform="translate(54.61 35.74)">.</text></g><g class="cls-2"><text class="cls-12" transform="translate(57.97 35.74)">1</text></g><g class="cls-2"><text class="cls-12" transform="translate(64.68 35.74)"> </text></g><g class="cls-2"><text class="cls-12" transform="translate(68.05 35.74)">Ca<tspan class="cls-14" x="15.34" y="0">r</tspan><tspan class="cls-15" x="19.93" y="0">b</tspan><tspan class="cls-16" x="27.14" y="0">on</tspan><tspan class="cls-17" x="41.99" y="0"> </tspan><tspan class="cls-5" x="45.12" y="0">e</tspan><tspan class="cls-18" x="51.82" y="0">m</tspan><tspan x="62.38" y="0">i</tspan><tspan class="cls-4" x="65.71" y="0">s</tspan><tspan class="cls-5" x="72.43" y="0">s</tspan><tspan x="79.13" y="0">i</tspan><tspan class="cls-19" x="82.47" y="0">o</tspan><tspan class="cls-16" x="89.7" y="0">n</tspan><tspan class="cls-5" x="97.13" y="0">s</tspan><tspan x="103.82" y="0"> </tspan><tspan class="cls-20" x="107.16" y="0">o</tspan><tspan class="cls-5" x="114.39" y="0">ve</tspan><tspan class="cls-18" x="127.79" y="0">r</tspan><tspan x="132.35" y="0"> </tspan><tspan class="cls-4" x="135.68" y="0">c</tspan><tspan class="cls-15" x="142.4" y="0">o</tspan><tspan class="cls-16" x="149.61" y="0">n</tspan><tspan class="cls-5" x="157.04" y="0">s</tspan><tspan class="cls-8" x="163.74" y="0">t</tspan><tspan class="cls-18" x="167.79" y="0">r</tspan><tspan class="cls-16" x="172.36" y="0">u</tspan><tspan class="cls-21" x="179.78" y="0">c</tspan><tspan class="cls-22" x="186.26" y="0">t</tspan><tspan x="190.1" y="0">i</tspan><tspan class="cls-23" x="193.44" y="0">o</tspan><tspan class="cls-24" x="200.89" y="0">n</tspan><tspan class="cls-11" x="208.32" y="0"> </tspan><tspan class="cls-25" x="211.45" y="0">ph</tspan><tspan class="cls-10" x="226.3" y="0">a</tspan><tspan class="cls-21" x="233" y="0">s</tspan><tspan class="cls-10" x="239.48" y="0">e</tspan><tspan x="246.17" y="0"> </tspan><tspan class="cls-4" x="249.51" y="0">a</tspan><tspan class="cls-15" x="256.23" y="0">n</tspan><tspan class="cls-25" x="263.44" y="0">d</tspan><tspan x="270.87" y="0"> </tspan><tspan class="cls-4" x="274.2" y="0">s</tspan><tspan class="cls-26" x="280.92" y="0">i</tspan><tspan class="cls-27" x="284.05" y="0">x</tspan><tspan class="cls-28" x="290.75" y="0">t</tspan><tspan x="294.81" y="0">y</tspan></text></g><g class="cls-2"><text class="cls-12" transform="translate(369.84 35.74)">-</text></g><g class="cls-2"><text class="cls-12" transform="translate(373.92 35.74)"><tspan class="cls-21">y</tspan><tspan class="cls-10" x="6.48" y="0">ea</tspan><tspan class="cls-29" x="19.88" y="0">r</tspan><tspan x="24.44" y="0"> </tspan><tspan class="cls-23" x="27.77" y="0">o</tspan><tspan class="cls-25" x="35.22" y="0">p</tspan><tspan class="cls-10" x="42.65" y="0">e</tspan><tspan class="cls-29" x="49.35" y="0">r</tspan><tspan class="cls-10" x="53.91" y="0">a</tspan><tspan class="cls-30" x="60.61" y="0">t</tspan><tspan x="64.66" y="0">i</tspan><tspan class="cls-20" x="68" y="0">o</tspan><tspan class="cls-25" x="75.23" y="0">n</tspan><tspan class="cls-10" x="82.66" y="0">a</tspan><tspan x="89.36" y="0">l </tspan></text></g><g class="cls-2"><text class="cls-12" transform="translate(224.09 49.9)"><tspan class="cls-16">ph</tspan><tspan class="cls-5" x="14.85" y="0">a</tspan><tspan class="cls-31" x="21.55" y="0">s</tspan><tspan x="28.03" y="0">e</tspan></text></g><g class="cls-2"><text class="cls-12" transform="translate(258.67 49.9)"> </text></g><g class="cls-2"><text class="cls-32" transform="translate(483.42 485.86)"> </text></g><rect class="cls-33" x="0.38" y="58.35" width="482.6" height="426.15"/><path class="cls-34" d="M298,266.93a175.44,175.44,0,1,1-25.78,349L298,442.37Z" transform="translate(-56.32 -170.95)"/><path class="cls-35" d="M298,266.93a175.44,175.44,0,1,1-25.78,349L298,442.37Z" transform="translate(-56.32 -170.95)"/><path class="cls-36" d="M272.22,615.91A175.44,175.44,0,0,1,152.77,540.8L298,442.37Z" transform="translate(-56.32 -170.95)"/><path class="cls-35" d="M272.22,615.91A175.44,175.44,0,0,1,152.77,540.8L298,442.37Z" transform="translate(-56.32 -170.95)"/><path class="cls-37" d="M152.77,540.8a175.43,175.43,0,0,1-30.17-94.47l175.4-4Z" transform="translate(-56.32 -170.95)"/><path class="cls-35" d="M152.77,540.8a175.43,175.43,0,0,1-30.17-94.47l175.4-4Z" transform="translate(-56.32 -170.95)"/><path class="cls-38" d="M122.6,446.33a175.59,175.59,0,0,1,12.74-69.69L298,442.37Z" transform="translate(-56.32 -170.95)"/><path class="cls-35" d="M122.6,446.33a175.59,175.59,0,0,1,12.74-69.69L298,442.37Z" transform="translate(-56.32 -170.95)"/><path class="cls-39" d="M135.34,376.64a175.24,175.24,0,0,1,34.42-54L298,442.37Z" transform="translate(-56.32 -170.95)"/><path class="cls-35" d="M135.34,376.64a175.24,175.24,0,0,1,34.42-54L298,442.37Z" transform="translate(-56.32 -170.95)"/><path class="cls-40" d="M169.76,322.65a175.47,175.47,0,0,1,36-29.54L298,442.37Z" transform="translate(-56.32 -170.95)"/><path class="cls-35" d="M169.76,322.65a175.47,175.47,0,0,1,36-29.54L298,442.37Z" transform="translate(-56.32 -170.95)"/><path class="cls-41" d="M205.8,293.11a174.89,174.89,0,0,1,26.11-13.25L298,442.37Z" transform="translate(-56.32 -170.95)"/><path class="cls-35" d="M205.8,293.11a174.89,174.89,0,0,1,26.11-13.25L298,442.37Z" transform="translate(-56.32 -170.95)"/><path class="cls-42" d="M231.91,279.86a175.76,175.76,0,0,1,31.17-9.42L298,442.37Z" transform="translate(-56.32 -170.95)"/><path class="cls-35" d="M231.91,279.86a175.76,175.76,0,0,1,31.17-9.42L298,442.37Z" transform="translate(-56.32 -170.95)"/><path class="cls-43" d="M263.08,270.44A175.72,175.72,0,0,1,298,266.93V442.37Z" transform="translate(-56.32 -170.95)"/><path class="cls-35" d="M263.08,270.44A175.72,175.72,0,0,1,298,266.93V442.37Z" transform="translate(-56.32 -170.95)"/><polyline class="cls-44" points="416.63 284.35 416.63 362.57 416.63 367"/><polyline class="cls-44" points="148.28 419.94 52.4 432.94 47.88 432.94"/><polyline class="cls-44" points="69.09 239.89 50.95 205.78 46.42 205.78"/><polyline class="cls-44" points="93.75 177.11 74.47 155.66 70.03 155.66"/><polyline class="cls-44" points="130.47 135.73 84.08 128.01 79.48 128.01"/><polyline class="cls-44" points="162.25 114.99 92.72 93.01 88.23 93.01"/><polyline class="cls-44" points="190.96 103.48 175.03 87.11 170.6 87.11"/><polyline class="cls-44" points="224.13 96.86 234.31 84.92 238.91 84.92"/><g class="cls-45"><text class="cls-46" transform="translate(397.71 377.23)">O<tspan class="cls-47" x="6.99" y="0">p</tspan><tspan x="12.49" y="0">e</tspan><tspan class="cls-47" x="17.74" y="0">r</tspan><tspan x="21.37" y="0">ati</tspan><tspan class="cls-48" x="32.31" y="0">o</tspan><tspan x="37.81" y="0">n</tspan><tspan class="cls-49" x="43.35" y="0">a</tspan><tspan x="48.38" y="0">l </tspan><tspan class="cls-50" x="53.19" y="0">t</tspan><tspan class="cls-51" x="56.76" y="0">r</tspan><tspan x="60.37" y="0">affic</tspan></text></g><g class="cls-45"><text class="cls-46" transform="translate(428.18 389.95)"><tspan class="cls-52">52</tspan><tspan x="10.58" y="0">%</tspan></text></g><g class="cls-45"><text class="cls-53" transform="translate(13.01 433.18)">T<tspan class="cls-54" x="5.04" y="0">u</tspan><tspan class="cls-47" x="10.59" y="0">n</tspan><tspan class="cls-54" x="16.08" y="0">ne</tspan><tspan class="cls-55" x="26.89" y="0">l</tspan><tspan class="cls-54" x="29.29" y="0">s</tspan></text></g><g class="cls-45"><text class="cls-56" transform="translate(20.69 445.9)"><tspan class="cls-57">13</tspan><tspan x="10.58" y="0">%</tspan></text></g><g class="cls-45"><text class="cls-46" transform="translate(3.27 366.17)"><tspan class="cls-58">M</tspan><tspan x="9.11" y="0">a</tspan><tspan class="cls-59" x="14.17" y="0">i</tspan><tspan x="16.56" y="0">n</tspan><tspan class="cls-60" x="22.11" y="0">t</tspan><tspan class="cls-54" x="25.68" y="0">ena</tspan><tspan class="cls-61" x="41.54" y="0">n</tspan><tspan class="cls-58" x="47.05" y="0">c</tspan><tspan x="51.6" y="0">e,</tspan><tspan class="cls-62" x="59.49" y="0"> </tspan><tspan class="cls-51" x="61.43" y="0">r</tspan><tspan x="65.04" y="0">epa</tspan><tspan class="cls-63" x="80.9" y="0">i</tspan><tspan class="cls-51" x="83.28" y="0">r</tspan><tspan x="86.89" y="0"> </tspan></text></g><g class="cls-45"><text class="cls-46" transform="translate(14.79 378.89)">&amp; <tspan class="cls-52" x="9.59" y="0">r</tspan><tspan class="cls-54" x="13.21" y="0">ep</tspan><tspan class="cls-55" x="24.01" y="0">l</tspan><tspan x="26.41" y="0">a</tspan><tspan class="cls-64" x="31.47" y="0">c</tspan><tspan class="cls-54" x="36" y="0">ement</tspan></text></g><g class="cls-45"><text class="cls-46" transform="translate(40.47 391.85)"><tspan class="cls-63">9</tspan><tspan x="5.31" y="0">%</tspan></text></g><g class="cls-45"><text class="cls-46" transform="translate(3.27 205.97)"><tspan class="cls-65">H</tspan><tspan x="6.48" y="0">i</tspan><tspan class="cls-60" x="8.91" y="0">g</tspan><tspan class="cls-54" x="13.91" y="0">h</tspan><tspan class="cls-66" x="19.46" y="0">w</tspan><tspan x="26.88" y="0">ays</tspan></text></g><g class="cls-45"><text class="cls-46" transform="translate(17.43 218.69)"><tspan class="cls-52">7</tspan><tspan x="5.29" y="0">%</tspan></text></g><g class="cls-45"><text class="cls-46" transform="translate(3.32 155.83)"><tspan class="cls-67">E</tspan><tspan x="5.04" y="0">n</tspan><tspan class="cls-59" x="10.59" y="0">a</tspan><tspan x="15.61" y="0">b</tspan><tspan class="cls-61" x="21.16" y="0">l</tspan><tspan x="23.54" y="0">i</tspan><tspan class="cls-47" x="25.97" y="0">n</tspan><tspan class="cls-68" x="31.46" y="0">g</tspan><tspan x="36.49" y="0"> </tspan><tspan class="cls-69" x="38.87" y="0">w</tspan><tspan class="cls-61" x="46.34" y="0">o</tspan><tspan class="cls-70" x="51.86" y="0">r</tspan><tspan x="55.47" y="0">ks</tspan></text></g><g class="cls-45"><text class="cls-46" transform="translate(29.24 168.55)"><tspan class="cls-52">6</tspan><tspan x="5.29" y="0">%</tspan></text></g><g class="cls-45"><text class="cls-46" transform="translate(52.01 128.19)">D<tspan class="cls-59" x="6.5" y="0">i</tspan><tspan x="8.89" y="0">esel</tspan></text></g><g class="cls-45"><text class="cls-46" transform="translate(58.74 140.91)"><tspan class="cls-52">4</tspan><tspan x="5.29" y="0">%</tspan></text></g><g class="cls-45"><text class="cls-46" transform="translate(3.29 93.17)"><tspan class="cls-71">C</tspan><tspan class="cls-63" x="5.52" y="0">o</tspan><tspan class="cls-54" x="11.05" y="0">n</tspan><tspan class="cls-51" x="16.6" y="0">s</tspan><tspan class="cls-68" x="20.66" y="0">t</tspan><tspan class="cls-70" x="24.25" y="0">r</tspan><tspan class="cls-54" x="27.85" y="0">u</tspan><tspan class="cls-64" x="33.4" y="0">c</tspan><tspan x="37.93" y="0">ti</tspan><tspan class="cls-51" x="43.81" y="0">o</tspan><tspan x="49.31" y="0">n</tspan><tspan class="cls-72" x="54.86" y="0"> </tspan><tspan class="cls-65" x="56.99" y="0">w</tspan><tspan class="cls-73" x="64.44" y="0">a</tspan><tspan class="cls-74" x="69.5" y="0">s</tspan><tspan class="cls-75" x="73.57" y="0">t</tspan><tspan class="cls-54" x="77.16" y="0">e</tspan></text></g><g class="cls-45"><text class="cls-46" transform="translate(38.33 105.89)"><tspan class="cls-63">3</tspan><tspan x="5.31" y="0">%</tspan></text></g><g class="cls-45"><text class="cls-46" transform="translate(154.22 74.43)">Ri<tspan class="cls-76" x="8.16" y="0">s</tspan><tspan class="cls-73" x="12.23" y="0">k</tspan></text></g><g class="cls-45"><text class="cls-56" transform="translate(156.38 87.15)"><tspan class="cls-57">3</tspan><tspan x="5.29" y="0">%</tspan></text></g><g class="cls-45"><text class="cls-46" transform="translate(234.32 71.59)">O<tspan class="cls-77" x="6.99" y="0">t</tspan><tspan x="10.55" y="0">her</tspan></text></g><g class="cls-45"><text class="cls-46" transform="translate(240.55 84.31)"><tspan class="cls-52">3</tspan><tspan x="5.29" y="0">%</tspan></text></g><g class="cls-78"><rect class="cls-79" x="0.38" y="58.35" width="482.6" height="426.15"/></g></g></g></svg>