<?xml version="1.0" encoding="UTF-8" standalone="no"?>
<!DOCTYPE svg PUBLIC "-//W3C//DTD SVG 1.1//EN" "http://www.w3.org/Graphics/SVG/1.1/DTD/svg11.dtd">
<svg width="100%" height="100%" viewBox="0 0 904 144" version="1.1" xmlns="http://www.w3.org/2000/svg" xmlns:xlink="http://www.w3.org/1999/xlink" xml:space="preserve" xmlns:serif="http://www.serif.com/" style="fill-rule:evenodd;clip-rule:evenodd;stroke-linejoin:round;stroke-miterlimit:2;">
    <g id="Artboard1" transform="matrix(2.70659,0,0,0.741526,-3234.37,-276.589)">
        <rect x="1195" y="373" width="334" height="194.194" style="fill:none;"/>
        <clipPath id="_clip1">
            <rect x="1195" y="373" width="334" height="194.194"/>
        </clipPath>
        <g clip-path="url(#_clip1)">
            <g transform="matrix(0.142759,0.25422,-0.0696489,0.521072,1209.28,151.336)">
                <g transform="matrix(1,0,0,1.72315,0,-433.668)">
                    <path d="M387.742,303.321L70,599.694L705,599.694L387.742,303.321Z" style="fill:url(#_Linear2);"/>
                </g>
                <path d="M387,89L388,395L70,599.694L387,89Z" style="fill:url(#_Linear3);"/>
                <path d="M387,89L705,599.694L388,395L387,89Z" style="fill:url(#_Linear4);"/>
            </g>
            <g transform="matrix(0.034605,-0.565922,0.155046,0.126309,1419.15,639.013)">
                <g transform="matrix(1,0,0,1.72315,0,-433.668)">
                    <path d="M387.742,303.321L70,599.694L705,599.694L387.742,303.321Z" style="fill:url(#_Linear5);"/>
                </g>
                <path d="M387,89L388,395L70,599.694L387,89Z" style="fill:url(#_Linear6);"/>
                <path d="M387,89L705,599.694L388,395L387,89Z" style="fill:url(#_Linear7);"/>
            </g>
        </g>
    </g>
    <defs>
        <linearGradient id="_Linear2" x1="0" y1="0" x2="1" y2="0" gradientUnits="userSpaceOnUse" gradientTransform="matrix(635,-1.31952e-13,2.27374e-13,368.512,70,599.694)"><stop offset="0" style="stop-color:rgb(255,221,0);stop-opacity:1"/><stop offset="1" style="stop-color:rgb(255,87,210);stop-opacity:1"/></linearGradient>
        <linearGradient id="_Linear3" x1="0" y1="0" x2="1" y2="0" gradientUnits="userSpaceOnUse" gradientTransform="matrix(-318,510.278,-510.278,-318,388,89.416)"><stop offset="0" style="stop-color:rgb(50,255,208);stop-opacity:1"/><stop offset="1" style="stop-color:rgb(255,245,0);stop-opacity:1"/></linearGradient>
        <linearGradient id="_Linear4" x1="0" y1="0" x2="1" y2="0" gradientUnits="userSpaceOnUse" gradientTransform="matrix(317.5,511,-511,317.5,387.5,88.6941)"><stop offset="0" style="stop-color:rgb(82,189,255);stop-opacity:1"/><stop offset="1" style="stop-color:rgb(216,97,255);stop-opacity:1"/></linearGradient>
        <linearGradient id="_Linear5" x1="0" y1="0" x2="1" y2="0" gradientUnits="userSpaceOnUse" gradientTransform="matrix(635,-1.31952e-13,2.27374e-13,368.512,70,599.694)"><stop offset="0" style="stop-color:rgb(255,221,0);stop-opacity:1"/><stop offset="1" style="stop-color:rgb(255,87,210);stop-opacity:1"/></linearGradient>
        <linearGradient id="_Linear6" x1="0" y1="0" x2="1" y2="0" gradientUnits="userSpaceOnUse" gradientTransform="matrix(-318,510.278,-510.278,-318,388,89.416)"><stop offset="0" style="stop-color:rgb(50,255,208);stop-opacity:1"/><stop offset="1" style="stop-color:rgb(255,245,0);stop-opacity:1"/></linearGradient>
        <linearGradient id="_Linear7" x1="0" y1="0" x2="1" y2="0" gradientUnits="userSpaceOnUse" gradientTransform="matrix(317.5,511,-511,317.5,387.5,88.6941)"><stop offset="0" style="stop-color:rgb(82,189,255);stop-opacity:1"/><stop offset="1" style="stop-color:rgb(216,97,255);stop-opacity:1"/></linearGradient>
    </defs>
</svg>
